<svg xmlns="http://www.w3.org/2000/svg" viewBox="0 0 26 26"><defs><style>.cls-1{fill:#8cdd9c;stroke:#28b67a;stroke-miterlimit:10;}.cls-2{fill:#fff;}</style></defs><title>Asset 46</title><g id="Layer_2" data-name="Layer 2"><g id="Client_list_dropdown" data-name="Client list dropdown"><circle class="cls-1" cx="13" cy="13" r="12.5"/><path class="cls-2" d="M18.74,11l-1.9-.16c-.37-1.71-1.2-2.86-3-3.06l-.16,0a.49.49,0,0,0-1,0l-.16,0A4.09,4.09,0,0,0,9,12a4.21,4.21,0,0,0,.3,1.56l.26,0a4.64,4.64,0,0,0,1.08,2.31,6.34,6.34,0,0,1-1,3.49h4.78a11.09,11.09,0,0,1,.09-2.55c1.8.43,2.45-2.23,2.45-4.12a3.57,3.57,0,0,0-.09-.81l1.88-.16a.33.33,0,0,0,0-.65Z"/></g></g></svg>