<svg xmlns="http://www.w3.org/2000/svg" viewBox="0 0 26 26"><defs><style>.cls-1{fill:#c4d600;stroke:#b6a91c;stroke-miterlimit:10;}.cls-2{fill:#fff;}</style></defs><title>Asset 43</title><g id="Layer_2" data-name="Layer 2"><g id="month_view" data-name="month view"><circle class="cls-1" cx="13" cy="13" r="12.5"/><path class="cls-2" d="M19.6,10.64a13.41,13.41,0,0,1-.54-2.13,2.52,2.52,0,0,0,.35-.47A3.2,3.2,0,0,1,18,8.27a2.38,2.38,0,0,0-1.78.59c-.43.3-1.45,1.06-2.1,1.54a8.64,8.64,0,0,1-1.25,0,12.6,12.6,0,0,0-3.58-.17A3,3,0,0,0,8,10.79H7.88a1,1,0,0,0-1,.43c-.32.55-.37,3-.46,4.47S6.34,18,6.34,18H7.49l.17-.23v-.55l.13.62.09-.12c0,.15,0,.26,0,.3,0,.2.1.1.16.33a1.23,1.23,0,0,1,.06.43c0,.19.75.1.75.1A2.05,2.05,0,0,1,8.35,18a3.59,3.59,0,0,1,.2-1.78c.13-.16.3-.4.48-.65,0,.13,0,.22,0,.24s.59,1.58.7,1.91,0,.24.22.3a.53.53,0,0,1,.37.32c.06.13.78.06.78.06a4.77,4.77,0,0,1-.78-.86,3.82,3.82,0,0,1-.72-1.92c.1-.34.78-1.08,1-1.45a3.34,3.34,0,0,0,.2-.64,7.91,7.91,0,0,1,1,.24,8.35,8.35,0,0,0,2.14.33h.7s0,1.71,0,1.88a18.37,18.37,0,0,0-.09,2.14c.1.1.2.16.22.32a3.19,3.19,0,0,1,0,.49,2,2,0,0,0,.67,0c.2-.07-.4-.45-.37-.92s.22-2.58.27-3a3.53,3.53,0,0,1,.25-.77l1,.24a2,2,0,0,1,.88.53s.26,1.35.24,1.58a1.19,1.19,0,0,0,0,.23c0,.17-.26.22-.37.26s-.09.72-.09.72l.86-.72a2.24,2.24,0,0,0,0-.93,10.42,10.42,0,0,0-.23-1.59,10.12,10.12,0,0,0-1.53-1,3.21,3.21,0,0,0,.11-.39,1.65,1.65,0,0,0,.13-.72c0-.23.05-.43.06-.55a7.21,7.21,0,0,1,1-1.68l.52.24a1.22,1.22,0,0,1,.6.44c.13.25,0,.43.11.47s.59.39.77.19A1.12,1.12,0,0,0,19.6,10.64ZM8.17,15.31c-.19.26-.19.32-.19.32s0,.84-.06,1.53c-.13-.94-.4-3.07-.41-3.9,0-1.08-.4-1.78.06-1.92l.19-.06A4.47,4.47,0,0,0,8,13.2c.3.7.46.63.47,1.19A1.12,1.12,0,0,1,8.17,15.31Z"/></g></g></svg>